<svg width="364" height="88" viewBox="0 0 364 88" fill="none" xmlns="http://www.w3.org/2000/svg">
<path d="M364 44.5C364 68.5244 274.153 88 186.919 88C99.6845 88 0 68.5244 0 44.5C0 20.4756 99.6845 0 186.919 0C274.153 0 364 20.4756 364 44.5Z" fill="#FFD800"/>
<path d="M92.1 28C93.84 28 95.25 28.39 96.33 29.17C97.43 29.93 97.98 30.85 97.98 31.93C97.98 32.73 97.71 33.35 97.17 33.79C96.63 34.23 95.9 34.45 94.98 34.45C94.98 31.87 93.9 30.58 91.74 30.58C89.9 30.58 88.47 31.33 87.45 32.83C86.45 34.31 85.95 36.33 85.95 38.89C85.95 41.43 86.44 43.38 87.42 44.74C88.4 46.1 89.95 46.78 92.07 46.78C94.19 46.78 96.06 46.17 97.68 44.95C98 45.15 98.16 45.47 98.16 45.91C98.16 46.73 97.45 47.53 96.03 48.31C94.61 49.07 92.94 49.45 91.02 49.45C88.06 49.45 85.82 48.54 84.3 46.72C82.8 44.88 82.05 42.3 82.05 38.98C82.05 35.66 82.9 33 84.6 31C86.32 29 88.82 28 92.1 28ZM109.577 37.3C109.017 36.24 108.217 35.71 107.177 35.71C106.137 35.71 105.327 36.23 104.747 37.27C104.187 38.31 103.907 39.73 103.907 41.53C103.907 43.31 104.187 44.7 104.747 45.7C105.327 46.68 106.137 47.17 107.177 47.17C108.217 47.17 109.017 46.69 109.577 45.73C110.157 44.75 110.447 43.37 110.447 41.59C110.447 39.79 110.157 38.36 109.577 37.3ZM100.097 41.68C100.097 39.12 100.727 37.1 101.987 35.62C103.267 34.14 105.037 33.4 107.297 33.4C109.557 33.4 111.277 34.11 112.457 35.53C113.657 36.95 114.257 38.92 114.257 41.44C114.257 43.94 113.617 45.9 112.337 47.32C111.057 48.74 109.267 49.45 106.967 49.45C104.687 49.45 102.967 48.79 101.807 47.47C100.667 46.15 100.097 44.22 100.097 41.68ZM132.857 49H126.227V48.76C126.227 47.66 126.667 47.07 127.547 46.99L128.417 46.93V39.55C128.417 38.39 128.187 37.58 127.727 37.12C127.267 36.64 126.627 36.4 125.807 36.4C124.987 36.4 124.317 36.51 123.797 36.73C123.277 36.95 122.737 37.3 122.177 37.78V46.87L124.307 47.05C124.427 48.35 123.977 49 122.957 49H116.267V48.76C116.267 47.66 116.707 47.07 117.587 46.99L118.517 46.93V36.22L117.347 36.1C116.527 36.02 116.157 35.4 116.237 34.24L121.667 33.58L121.877 35.41H121.967C122.707 34.77 123.417 34.28 124.097 33.94C124.797 33.58 125.617 33.4 126.557 33.4C128.097 33.4 129.397 33.92 130.457 34.96C131.537 35.98 132.077 37.56 132.077 39.7V46.87L134.207 47.05C134.327 48.35 133.877 49 132.857 49ZM137.909 33.85V33.04C137.909 31.36 138.439 29.96 139.499 28.84C140.559 27.7 141.949 27.12 143.669 27.1C145.909 27.06 147.029 27.74 147.029 29.14C147.029 29.82 146.809 30.32 146.369 30.64C145.929 30.96 145.359 31.12 144.659 31.12C144.659 29.84 144.169 29.2 143.189 29.2C142.089 29.2 141.539 30.44 141.539 32.92V33.85H145.409C145.509 35.25 145.039 35.95 143.999 35.95H141.539V46.87H141.569L144.599 47.05C144.659 47.17 144.649 47.44 144.569 47.86C144.389 48.62 143.949 49 143.249 49H135.689V48.76C135.689 47.66 136.129 47.07 137.009 46.99L137.879 46.93L137.909 35.95H135.749C135.749 34.55 136.239 33.85 137.219 33.85H137.909ZM154.246 49H147.556V48.76C147.556 47.66 147.996 47.07 148.876 46.99L149.806 46.93V36.04L148.636 35.92C147.816 35.84 147.446 35.22 147.526 34.06L153.466 33.4V46.87L155.596 47.05C155.716 48.35 155.266 49 154.246 49ZM153.616 29.83C153.616 30.45 153.406 30.98 152.986 31.42C152.566 31.84 152.036 32.05 151.396 32.05C150.776 32.05 150.246 31.84 149.806 31.42C149.386 30.98 149.176 30.45 149.176 29.83C149.176 29.21 149.386 28.69 149.806 28.27C150.246 27.83 150.776 27.61 151.396 27.61C152.016 27.61 152.536 27.83 152.956 28.27C153.396 28.69 153.616 29.21 153.616 29.83ZM162.866 36.04C163.346 35.4 164.026 34.8 164.906 34.24C165.806 33.68 166.576 33.4 167.216 33.4C167.876 33.4 168.426 33.61 168.866 34.03C169.306 34.45 169.526 35.15 169.526 36.13C169.526 37.09 169.196 37.86 168.536 38.44C168.196 38.7 167.626 38.78 166.826 38.68C166.826 38.02 166.766 37.52 166.646 37.18C166.526 36.82 166.396 36.61 166.256 36.55C166.116 36.47 165.926 36.43 165.686 36.43C164.686 36.43 163.786 37.08 162.986 38.38V46.87L165.416 47.05C165.536 48.35 165.086 49 164.066 49H157.136C157.136 49 157.136 48.92 157.136 48.76C157.136 47.66 157.576 47.07 158.456 46.99L159.326 46.93V36.19L158.006 36.04C157.386 35.98 157.076 35.38 157.076 34.24L162.506 33.55L162.776 36.04H162.866ZM184.924 47.65C184.924 48.85 184.144 49.45 182.584 49.45C181.024 49.45 180.014 48.93 179.554 47.89C178.294 48.93 176.904 49.45 175.384 49.45C173.864 49.45 172.664 49.08 171.784 48.34C170.924 47.58 170.494 46.55 170.494 45.25C170.494 43.93 171.004 42.85 172.024 42.01C173.044 41.17 174.654 40.75 176.854 40.75C177.714 40.75 178.534 40.81 179.314 40.93V39.61C179.314 38.23 179.084 37.25 178.624 36.67C178.184 36.09 177.574 35.8 176.794 35.8C176.014 35.8 175.384 36.05 174.904 36.55C174.444 37.05 174.214 37.73 174.214 38.59C173.414 38.67 172.744 38.55 172.204 38.23C171.684 37.89 171.424 37.38 171.424 36.7C171.424 35.74 171.924 34.95 172.924 34.33C173.924 33.71 175.214 33.4 176.794 33.4C180.914 33.4 182.974 35.4 182.974 39.4V47.41L184.924 47.65ZM179.314 43.18C178.594 42.92 177.834 42.79 177.034 42.79C176.254 42.79 175.604 42.98 175.084 43.36C174.564 43.72 174.304 44.24 174.304 44.92C174.304 46.32 175.024 47.02 176.464 47.02C177.484 47.02 178.434 46.73 179.314 46.15V43.18ZM201.756 41.35H200.406V46.87L202.956 47.05C203.016 47.17 203.006 47.44 202.926 47.86C202.746 48.62 202.306 49 201.606 49H194.466V48.76C194.466 47.66 194.906 47.07 195.786 46.99L196.656 46.93V30.52L194.466 30.34C194.446 29.84 194.536 29.4 194.736 29.02C194.936 28.64 195.236 28.45 195.636 28.45H202.656C205.096 28.45 206.996 28.97 208.356 30.01C209.716 31.03 210.396 32.46 210.396 34.3C210.396 36.52 209.636 38.25 208.116 39.49C206.596 40.73 204.476 41.35 201.756 41.35ZM200.406 39.49H201.366C202.966 39.49 204.216 39.05 205.116 38.17C206.036 37.29 206.496 36.12 206.496 34.66C206.496 33.18 206.136 32.07 205.416 31.33C204.696 30.59 203.686 30.24 202.386 30.28L200.406 30.34V39.49ZM217.68 36.04C218.16 35.4 218.84 34.8 219.72 34.24C220.62 33.68 221.39 33.4 222.03 33.4C222.69 33.4 223.24 33.61 223.68 34.03C224.12 34.45 224.34 35.15 224.34 36.13C224.34 37.09 224.01 37.86 223.35 38.44C223.01 38.7 222.44 38.78 221.64 38.68C221.64 38.02 221.58 37.52 221.46 37.18C221.34 36.82 221.21 36.61 221.07 36.55C220.93 36.47 220.74 36.43 220.5 36.43C219.5 36.43 218.6 37.08 217.8 38.38V46.87L220.23 47.05C220.35 48.35 219.9 49 218.88 49H211.95C211.95 49 211.95 48.92 211.95 48.76C211.95 47.66 212.39 47.07 213.27 46.99L214.14 46.93V36.19L212.82 36.04C212.2 35.98 211.89 35.38 211.89 34.24L217.32 33.55L217.59 36.04H217.68ZM229.268 41.65V41.98C229.268 43.6 229.558 44.81 230.138 45.61C230.738 46.39 231.758 46.78 233.198 46.78C234.658 46.78 236.088 46.23 237.488 45.13C237.888 45.43 238.088 45.9 238.088 46.54C238.088 47.16 237.528 47.8 236.408 48.46C235.308 49.12 233.928 49.45 232.268 49.45C230.108 49.45 228.428 48.82 227.228 47.56C226.048 46.28 225.458 44.35 225.458 41.77C225.458 39.17 226.098 37.13 227.378 35.65C228.678 34.15 230.458 33.4 232.718 33.4C234.638 33.4 236.068 34 237.008 35.2C237.968 36.4 238.428 37.98 238.388 39.94V41.65H229.268ZM232.388 35.8C230.748 35.8 229.758 37.06 229.418 39.58H234.878C234.838 38.22 234.608 37.25 234.188 36.67C233.768 36.09 233.168 35.8 232.388 35.8ZM246.13 49.39C244.31 49.17 242.89 48.39 241.87 47.05C240.87 45.71 240.37 43.85 240.37 41.47C240.37 39.09 241.05 37.15 242.41 35.65C243.77 34.15 245.58 33.4 247.84 33.4C249.28 33.4 250.45 33.71 251.35 34.33C252.27 34.93 252.73 35.7 252.73 36.64C252.73 37.58 252.45 38.24 251.89 38.62C251.33 39 250.74 39.15 250.12 39.07C250.1 38.21 249.87 37.46 249.43 36.82C248.99 36.18 248.28 35.86 247.3 35.86C246.34 35.86 245.58 36.33 245.02 37.27C244.46 38.19 244.18 39.49 244.18 41.17C244.18 44.89 245.61 46.75 248.47 46.75C249.81 46.75 251.09 46.21 252.31 45.13C252.51 45.25 252.67 45.45 252.79 45.73C252.91 46.01 252.97 46.25 252.97 46.45C252.97 47.05 252.45 47.68 251.41 48.34C250.37 48.98 249.15 49.34 247.75 49.42L247.51 50.38C248.35 50.38 248.98 50.6 249.4 51.04C249.82 51.48 250.03 52.03 250.03 52.69C250.03 53.35 249.75 53.92 249.19 54.4C248.63 54.9 247.88 55.15 246.94 55.15C246.02 55.15 245.3 54.87 244.78 54.31C244.76 54.09 244.79 53.84 244.87 53.56C244.95 53.28 245.04 53.11 245.14 53.05C245.5 53.35 246 53.5 246.64 53.5C247.3 53.5 247.63 53.2 247.63 52.6C247.63 52.26 247.49 52 247.21 51.82C246.93 51.66 246.38 51.58 245.56 51.58L246.13 49.39ZM264.001 37.3C263.441 36.24 262.641 35.71 261.601 35.71C260.561 35.71 259.751 36.23 259.171 37.27C258.611 38.31 258.331 39.73 258.331 41.53C258.331 43.31 258.611 44.7 259.171 45.7C259.751 46.68 260.561 47.17 261.601 47.17C262.641 47.17 263.441 46.69 264.001 45.73C264.581 44.75 264.871 43.37 264.871 41.59C264.871 39.79 264.581 38.36 264.001 37.3ZM254.521 41.68C254.521 39.12 255.151 37.1 256.411 35.62C257.691 34.14 259.461 33.4 261.721 33.4C263.981 33.4 265.701 34.11 266.881 35.53C268.081 36.95 268.681 38.92 268.681 41.44C268.681 43.94 268.041 45.9 266.761 47.32C265.481 48.74 263.691 49.45 261.391 49.45C259.111 49.45 257.391 48.79 256.231 47.47C255.091 46.15 254.521 44.22 254.521 41.68ZM280.47 34.51C280.97 34.95 281.22 35.52 281.22 36.22C281.22 36.92 280.99 37.46 280.53 37.84C280.09 38.22 279.52 38.36 278.82 38.26C278.82 37.52 278.53 36.9 277.95 36.4C277.37 35.88 276.72 35.62 276 35.62C275.3 35.62 274.76 35.76 274.38 36.04C274 36.3 273.81 36.65 273.81 37.09C273.81 37.53 274.08 37.93 274.62 38.29C275.18 38.63 275.96 39 276.96 39.4C277.98 39.8 278.71 40.12 279.15 40.36C279.59 40.58 280.06 40.88 280.56 41.26C281.52 41.98 282 43.05 282 44.47C282 45.87 281.43 47.05 280.29 48.01C279.15 48.97 277.63 49.45 275.73 49.45C274.33 49.45 273.1 49.19 272.04 48.67C271 48.15 270.48 47.37 270.48 46.33C270.48 45.63 270.73 45.09 271.23 44.71C271.73 44.31 272.32 44.11 273 44.11C273.26 46.15 274.42 47.17 276.48 47.17C278.14 47.17 278.97 46.62 278.97 45.52C278.97 44.8 278.53 44.22 277.65 43.78C277.17 43.52 276.59 43.26 275.91 43C275.23 42.74 274.69 42.52 274.29 42.34C273.91 42.14 273.49 41.89 273.03 41.59C272.57 41.29 272.19 40.98 271.89 40.66C271.23 39.92 270.9 39.02 270.9 37.96C270.9 36.52 271.48 35.4 272.64 34.6C273.8 33.8 275.19 33.4 276.81 33.4C278.43 33.4 279.65 33.77 280.47 34.51Z" fill="black"/>
</svg>
