<svg width="364" height="88" viewBox="0 0 364 88" fill="none" xmlns="http://www.w3.org/2000/svg">
<path d="M364 44.5C364 68.5244 274.153 88 186.919 88C99.6845 88 0 68.5244 0 44.5C0 20.4756 99.6845 0 186.919 0C274.153 0 364 20.4756 364 44.5Z" fill="#FFD800"/>
<path d="M61.32 35.5C61.9 36.08 62.19 36.8 62.19 37.66C62.19 38.52 61.93 39.17 61.41 39.61C60.89 40.05 60.22 40.21 59.4 40.09C59.4 37.55 58.29 36.28 56.07 36.28C55.09 36.28 54.29 36.51 53.67 36.97C53.07 37.41 52.77 38.02 52.77 38.8C52.77 39.4 52.91 39.85 53.19 40.15C53.47 40.43 53.68 40.64 53.82 40.78C53.96 40.9 54.22 41.07 54.6 41.29C55 41.49 55.28 41.63 55.44 41.71C55.62 41.79 55.97 41.95 56.49 42.19C57.03 42.41 57.39 42.56 57.57 42.64C59.61 43.54 61.04 44.4 61.86 45.22C62.7 46.04 63.12 47.18 63.12 48.64C63.12 50.66 62.41 52.3 60.99 53.56C59.57 54.82 57.65 55.45 55.23 55.45C52.79 55.45 50.96 54.9 49.74 53.8C49.08 53.18 48.75 52.46 48.75 51.64C48.75 50.8 49.01 50.14 49.53 49.66C50.07 49.18 50.87 48.94 51.93 48.94C51.93 50.4 52.23 51.47 52.83 52.15C53.45 52.83 54.42 53.17 55.74 53.17C57.06 53.17 58.1 52.87 58.86 52.27C59.62 51.65 60 50.88 60 49.96C60 49.04 59.64 48.3 58.92 47.74C58.2 47.18 57.24 46.64 56.04 46.12C54.84 45.6 54.05 45.26 53.67 45.1C53.29 44.92 52.79 44.64 52.17 44.26C51.55 43.86 51.1 43.48 50.82 43.12C50.04 42.16 49.65 41.06 49.65 39.82C49.65 37.92 50.35 36.48 51.75 35.5C53.15 34.5 54.84 34 56.82 34C58.8 34 60.3 34.5 61.32 35.5ZM74.5261 43.3C73.9661 42.24 73.1661 41.71 72.1261 41.71C71.0861 41.71 70.2761 42.23 69.6961 43.27C69.1361 44.31 68.8561 45.73 68.8561 47.53C68.8561 49.31 69.1361 50.7 69.6961 51.7C70.2761 52.68 71.0861 53.17 72.1261 53.17C73.1661 53.17 73.9661 52.69 74.5261 51.73C75.1061 50.75 75.3961 49.37 75.3961 47.59C75.3961 45.79 75.1061 44.36 74.5261 43.3ZM65.0461 47.68C65.0461 45.12 65.6761 43.1 66.9361 41.62C68.2161 40.14 69.9861 39.4 72.2461 39.4C74.5061 39.4 76.2261 40.11 77.4061 41.53C78.6061 42.95 79.2061 44.92 79.2061 47.44C79.2061 49.94 78.5661 51.9 77.2861 53.32C76.0061 54.74 74.2161 55.45 71.9161 55.45C69.6361 55.45 67.9161 54.79 66.7561 53.47C65.6161 52.15 65.0461 50.22 65.0461 47.68ZM87.9059 55H81.2159V54.76C81.2159 53.66 81.6559 53.07 82.5359 52.99L83.4659 52.93V36.19L82.2959 36.07C81.4759 35.99 81.1059 35.37 81.1859 34.21L87.1259 33.55V52.87L89.2559 53.05C89.3759 54.35 88.9259 55 87.9059 55ZM97.4859 55H90.7959V54.76C90.7959 53.66 91.2359 53.07 92.1159 52.99L93.0459 52.93V42.04L91.8759 41.92C91.0559 41.84 90.6859 41.22 90.7659 40.06L96.7059 39.4V52.87L98.8359 53.05C98.9559 54.35 98.5059 55 97.4859 55ZM96.8559 35.83C96.8559 36.45 96.6459 36.98 96.2259 37.42C95.8059 37.84 95.2759 38.05 94.6359 38.05C94.0159 38.05 93.4859 37.84 93.0459 37.42C92.6259 36.98 92.4159 36.45 92.4159 35.83C92.4159 35.21 92.6259 34.69 93.0459 34.27C93.4859 33.83 94.0159 33.61 94.6359 33.61C95.2559 33.61 95.7759 33.83 96.1959 34.27C96.6359 34.69 96.8559 35.21 96.8559 35.83ZM107.936 39.4C109.376 39.4 110.546 39.71 111.446 40.33C112.366 40.93 112.826 41.7 112.826 42.64C112.826 43.58 112.546 44.24 111.986 44.62C111.426 45 110.836 45.15 110.216 45.07C110.196 44.21 109.966 43.46 109.526 42.82C109.086 42.18 108.376 41.86 107.396 41.86C106.436 41.86 105.676 42.33 105.116 43.27C104.556 44.19 104.276 45.49 104.276 47.17C104.276 50.89 105.706 52.75 108.566 52.75C109.906 52.75 111.186 52.21 112.406 51.13C112.606 51.25 112.766 51.45 112.886 51.73C113.006 52.01 113.066 52.25 113.066 52.45C113.066 53.09 112.476 53.75 111.296 54.43C110.136 55.11 108.796 55.45 107.276 55.45C105.156 55.45 103.486 54.77 102.266 53.41C101.066 52.03 100.466 50.1 100.466 47.62C100.466 45.14 101.146 43.15 102.506 41.65C103.866 40.15 105.676 39.4 107.936 39.4ZM121.216 55H114.526V54.76C114.526 53.66 114.966 53.07 115.846 52.99L116.776 52.93V42.04L115.606 41.92C114.786 41.84 114.416 41.22 114.496 40.06L120.436 39.4V52.87L122.566 53.05C122.686 54.35 122.236 55 121.216 55ZM120.586 35.83C120.586 36.45 120.376 36.98 119.956 37.42C119.536 37.84 119.006 38.05 118.366 38.05C117.746 38.05 117.216 37.84 116.776 37.42C116.356 36.98 116.146 36.45 116.146 35.83C116.146 35.21 116.356 34.69 116.776 34.27C117.216 33.83 117.746 33.61 118.366 33.61C118.986 33.61 119.506 33.83 119.926 34.27C120.366 34.69 120.586 35.21 120.586 35.83ZM129.386 41.95V50.26C129.386 51.88 129.906 52.69 130.946 52.69C131.706 52.69 132.336 52.59 132.836 52.39C133.356 52.19 133.906 51.85 134.486 51.37C134.586 51.37 134.716 51.5 134.876 51.76C135.036 52.02 135.116 52.3 135.116 52.6C135.116 53.38 134.566 54.05 133.466 54.61C132.366 55.17 131.296 55.45 130.256 55.45C129.216 55.45 128.396 55.3 127.796 55C127.196 54.72 126.746 54.3 126.446 53.74C125.966 52.82 125.726 51.6 125.726 50.08V41.95H123.236C123.236 40.55 123.726 39.85 124.706 39.85H125.726V36.01L129.386 35.62V39.85H134.786C134.826 40.15 134.796 40.49 134.696 40.87C134.516 41.59 134.056 41.95 133.316 41.95H129.386ZM140.311 47.65V47.98C140.311 49.6 140.601 50.81 141.181 51.61C141.781 52.39 142.801 52.78 144.241 52.78C145.701 52.78 147.131 52.23 148.531 51.13C148.931 51.43 149.131 51.9 149.131 52.54C149.131 53.16 148.571 53.8 147.451 54.46C146.351 55.12 144.971 55.45 143.311 55.45C141.151 55.45 139.471 54.82 138.271 53.56C137.091 52.28 136.501 50.35 136.501 47.77C136.501 45.17 137.141 43.13 138.421 41.65C139.721 40.15 141.501 39.4 143.761 39.4C145.681 39.4 147.111 40 148.051 41.2C149.011 42.4 149.471 43.98 149.431 45.94V47.65H140.311ZM143.431 41.8C141.791 41.8 140.801 43.06 140.461 45.58H145.921C145.881 44.22 145.651 43.25 145.231 42.67C144.811 42.09 144.211 41.8 143.431 41.8ZM168.711 36.4C165.131 36.4 163.341 39.13 163.341 44.59C163.341 47.33 163.781 49.42 164.661 50.86C165.561 52.3 166.871 53.03 168.591 53.05C170.411 53.03 171.781 52.33 172.701 50.95C173.641 49.55 174.111 47.49 174.111 44.77C174.111 42.05 173.651 39.98 172.731 38.56C171.831 37.12 170.491 36.4 168.711 36.4ZM159.441 44.86C159.441 41.48 160.301 38.83 162.021 36.91C163.741 34.97 166.061 34 168.981 34C171.901 34 174.131 34.93 175.671 36.79C177.231 38.63 178.011 41.24 178.011 44.62C178.011 47.98 177.141 50.63 175.401 52.57C173.681 54.49 171.361 55.45 168.441 55.45C165.521 55.45 163.291 54.53 161.751 52.69C160.211 50.83 159.441 48.22 159.441 44.86ZM185.764 42.04C186.244 41.4 186.924 40.8 187.804 40.24C188.704 39.68 189.474 39.4 190.114 39.4C190.774 39.4 191.324 39.61 191.764 40.03C192.204 40.45 192.424 41.15 192.424 42.13C192.424 43.09 192.094 43.86 191.434 44.44C191.094 44.7 190.524 44.78 189.724 44.68C189.724 44.02 189.664 43.52 189.544 43.18C189.424 42.82 189.294 42.61 189.154 42.55C189.014 42.47 188.824 42.43 188.584 42.43C187.584 42.43 186.684 43.08 185.884 44.38V52.87L188.314 53.05C188.434 54.35 187.984 55 186.964 55H180.034C180.034 55 180.034 54.92 180.034 54.76C180.034 53.66 180.474 53.07 181.354 52.99L182.224 52.93V42.19L180.904 42.04C180.284 41.98 179.974 41.38 179.974 40.24L185.404 39.55L185.674 42.04H185.764ZM199.302 55.39C197.482 55.17 196.062 54.39 195.042 53.05C194.042 51.71 193.542 49.85 193.542 47.47C193.542 45.09 194.222 43.15 195.582 41.65C196.942 40.15 198.752 39.4 201.012 39.4C202.452 39.4 203.622 39.71 204.522 40.33C205.442 40.93 205.902 41.7 205.902 42.64C205.902 43.58 205.622 44.24 205.062 44.62C204.502 45 203.912 45.15 203.292 45.07C203.272 44.21 203.042 43.46 202.602 42.82C202.162 42.18 201.452 41.86 200.472 41.86C199.512 41.86 198.752 42.33 198.192 43.27C197.632 44.19 197.352 45.49 197.352 47.17C197.352 50.89 198.782 52.75 201.642 52.75C202.982 52.75 204.262 52.21 205.482 51.13C205.682 51.25 205.842 51.45 205.962 51.73C206.082 52.01 206.142 52.25 206.142 52.45C206.142 53.05 205.622 53.68 204.582 54.34C203.542 54.98 202.322 55.34 200.922 55.42L200.682 56.38C201.522 56.38 202.152 56.6 202.572 57.04C202.992 57.48 203.202 58.03 203.202 58.69C203.202 59.35 202.922 59.92 202.362 60.4C201.802 60.9 201.052 61.15 200.112 61.15C199.192 61.15 198.472 60.87 197.952 60.31C197.932 60.09 197.962 59.84 198.042 59.56C198.122 59.28 198.212 59.11 198.312 59.05C198.672 59.35 199.172 59.5 199.812 59.5C200.472 59.5 200.802 59.2 200.802 58.6C200.802 58.26 200.662 58 200.382 57.82C200.102 57.66 199.552 57.58 198.732 57.58L199.302 55.39ZM221.973 53.65C221.973 54.85 221.193 55.45 219.633 55.45C218.073 55.45 217.063 54.93 216.603 53.89C215.343 54.93 213.953 55.45 212.433 55.45C210.913 55.45 209.713 55.08 208.833 54.34C207.973 53.58 207.543 52.55 207.543 51.25C207.543 49.93 208.053 48.85 209.073 48.01C210.093 47.17 211.703 46.75 213.903 46.75C214.763 46.75 215.583 46.81 216.363 46.93V45.61C216.363 44.23 216.133 43.25 215.673 42.67C215.233 42.09 214.623 41.8 213.843 41.8C213.063 41.8 212.433 42.05 211.953 42.55C211.493 43.05 211.263 43.73 211.263 44.59C210.463 44.67 209.793 44.55 209.253 44.23C208.733 43.89 208.473 43.38 208.473 42.7C208.473 41.74 208.973 40.95 209.973 40.33C210.973 39.71 212.263 39.4 213.843 39.4C217.963 39.4 220.023 41.4 220.023 45.4V53.41L221.973 53.65ZM216.363 49.18C215.643 48.92 214.883 48.79 214.083 48.79C213.303 48.79 212.653 48.98 212.133 49.36C211.613 49.72 211.353 50.24 211.353 50.92C211.353 52.32 212.073 53.02 213.513 53.02C214.533 53.02 215.483 52.73 216.363 52.15V49.18ZM249.227 55H242.597V54.76C242.597 53.66 243.037 53.07 243.917 52.99L244.787 52.93V45.55C244.787 44.39 244.547 43.58 244.067 43.12C243.587 42.64 242.817 42.4 241.757 42.4C240.717 42.4 239.667 42.86 238.607 43.78C238.747 44.4 238.817 45.04 238.817 45.7V52.87L240.947 53.05C241.067 54.35 240.617 55 239.597 55H232.907V54.76C232.907 53.66 233.347 53.07 234.227 52.99L235.157 52.93V45.55C235.157 44.39 234.917 43.58 234.437 43.12C233.957 42.64 233.227 42.4 232.247 42.4C231.267 42.4 230.237 42.86 229.157 43.78V52.87L231.287 53.05C231.407 54.35 230.957 55 229.937 55H223.247V54.76C223.247 53.66 223.687 53.07 224.567 52.99L225.497 52.93V42.22L224.327 42.1C223.507 42.02 223.137 41.4 223.217 40.24L228.647 39.58L228.857 41.41H228.947C229.467 40.95 229.877 40.61 230.177 40.39C230.477 40.17 230.927 39.95 231.527 39.73C232.147 39.51 232.837 39.4 233.597 39.4C234.377 39.4 235.157 39.6 235.937 40C236.717 40.38 237.357 40.97 237.857 41.77C239.517 40.19 241.157 39.4 242.777 39.4C244.417 39.4 245.767 39.92 246.827 40.96C247.907 41.98 248.447 43.56 248.447 45.7V52.87L250.577 53.05C250.637 53.17 250.627 53.44 250.547 53.86C250.367 54.62 249.927 55 249.227 55ZM256.005 47.65V47.98C256.005 49.6 256.295 50.81 256.875 51.61C257.475 52.39 258.495 52.78 259.935 52.78C261.395 52.78 262.825 52.23 264.225 51.13C264.625 51.43 264.825 51.9 264.825 52.54C264.825 53.16 264.265 53.8 263.145 54.46C262.045 55.12 260.665 55.45 259.005 55.45C256.845 55.45 255.165 54.82 253.965 53.56C252.785 52.28 252.195 50.35 252.195 47.77C252.195 45.17 252.835 43.13 254.115 41.65C255.415 40.15 257.195 39.4 259.455 39.4C261.375 39.4 262.805 40 263.745 41.2C264.705 42.4 265.165 43.98 265.125 45.94V47.65H256.005ZM259.125 41.8C257.485 41.8 256.495 43.06 256.155 45.58H261.615C261.575 44.22 261.345 43.25 260.925 42.67C260.505 42.09 259.905 41.8 259.125 41.8ZM283.607 55H276.977V54.76C276.977 53.66 277.417 53.07 278.297 52.99L279.167 52.93V45.55C279.167 44.39 278.937 43.58 278.477 43.12C278.017 42.64 277.377 42.4 276.557 42.4C275.737 42.4 275.067 42.51 274.547 42.73C274.027 42.95 273.487 43.3 272.927 43.78V52.87L275.057 53.05C275.177 54.35 274.727 55 273.707 55H267.017V54.76C267.017 53.66 267.457 53.07 268.337 52.99L269.267 52.93V42.22L268.097 42.1C267.277 42.02 266.907 41.4 266.987 40.24L272.417 39.58L272.627 41.41H272.717C273.457 40.77 274.167 40.28 274.847 39.94C275.547 39.58 276.367 39.4 277.307 39.4C278.847 39.4 280.147 39.92 281.207 40.96C282.287 41.98 282.827 43.56 282.827 45.7V52.87L284.957 53.05C285.077 54.35 284.627 55 283.607 55ZM291.779 41.95V50.26C291.779 51.88 292.299 52.69 293.339 52.69C294.099 52.69 294.729 52.59 295.229 52.39C295.749 52.19 296.299 51.85 296.879 51.37C296.979 51.37 297.109 51.5 297.269 51.76C297.429 52.02 297.509 52.3 297.509 52.6C297.509 53.38 296.959 54.05 295.859 54.61C294.759 55.17 293.689 55.45 292.649 55.45C291.609 55.45 290.789 55.3 290.189 55C289.589 54.72 289.139 54.3 288.839 53.74C288.359 52.82 288.119 51.6 288.119 50.08V41.95H285.629C285.629 40.55 286.119 39.85 287.099 39.85H288.119V36.01L291.779 35.62V39.85H297.179C297.219 40.15 297.189 40.49 297.089 40.87C296.909 41.59 296.449 41.95 295.709 41.95H291.779ZM308.374 43.3C307.814 42.24 307.014 41.71 305.974 41.71C304.934 41.71 304.124 42.23 303.544 43.27C302.984 44.31 302.704 45.73 302.704 47.53C302.704 49.31 302.984 50.7 303.544 51.7C304.124 52.68 304.934 53.17 305.974 53.17C307.014 53.17 307.814 52.69 308.374 51.73C308.954 50.75 309.244 49.37 309.244 47.59C309.244 45.79 308.954 44.36 308.374 43.3ZM298.894 47.68C298.894 45.12 299.524 43.1 300.784 41.62C302.064 40.14 303.834 39.4 306.094 39.4C308.354 39.4 310.074 40.11 311.254 41.53C312.454 42.95 313.054 44.92 313.054 47.44C313.054 49.94 312.414 51.9 311.134 53.32C309.854 54.74 308.064 55.45 305.764 55.45C303.484 55.45 301.764 54.79 300.604 53.47C299.464 52.15 298.894 50.22 298.894 47.68Z" fill="black"/>
</svg>
