<svg width="569" height="708" viewBox="0 0 569 708" fill="none" xmlns="http://www.w3.org/2000/svg">
<path fill-rule="evenodd" clip-rule="evenodd" d="M5.9931 515.96C9.70139 505.784 15.1881 496.528 22.134 488.729L22.1338 488.754C36.2564 472.919 55.388 463.886 75.4048 463.604C95.4216 463.322 114.719 471.811 129.138 487.244C161.123 521.525 203.864 540.554 248.298 540.297C292.733 540.039 335.367 520.516 367.159 485.865C382.805 468.817 395.282 448.506 403.879 426.096C412.476 403.685 417.022 379.615 417.259 355.264C417.496 330.913 413.419 306.758 405.259 284.186C397.1 261.612 385.02 241.062 369.709 223.713C338.597 188.449 296.351 168.1 251.929 166.979C207.508 165.857 164.406 184.051 131.76 217.704C117.044 232.849 97.5875 240.964 77.5814 240.297C57.5769 239.629 38.623 230.235 24.805 214.137C18.012 206.206 12.7064 196.844 9.19678 186.597C5.68868 176.351 4.04809 165.426 4.36958 154.457C4.69106 143.488 6.96948 132.696 11.0724 122.709C15.1738 112.722 21.0169 103.739 28.2629 96.2856C74.0952 48.8262 131.323 17.2429 192.948 5.39796C254.573 -6.44535 317.924 1.96071 375.252 29.5921C432.581 57.2236 481.403 102.882 515.747 160.982C550.092 219.083 568.471 287.107 568.635 356.737C567.116 426.349 547.418 494.004 511.95 551.424C476.481 608.845 426.781 653.545 368.925 680.056C311.07 706.567 247.568 713.74 186.185 700.699C124.802 687.658 68.1994 654.967 23.2988 606.625C16.1992 599.032 10.532 589.938 6.62564 579.874C2.71773 569.809 0.649676 558.974 0.541616 548.001C0.433548 537.029 2.28634 526.137 5.9931 515.96ZM172.13 353.181C172.35 307.147 206.413 269.951 248.212 270.1C290.011 270.249 323.718 307.687 323.499 353.72C323.279 399.753 289.217 436.95 247.418 436.801C205.619 436.652 171.912 399.214 172.13 353.181Z" fill="url(#paint0_linear_2_89)"/>
<defs>
<linearGradient id="paint0_linear_2_89" x1="602.04" y1="628.531" x2="-28.124" y2="307.197" gradientUnits="userSpaceOnUse">
<stop stop-color="#00A5F0"/>
<stop offset="1" stop-color="#00D7D7" stop-opacity="0"/>
</linearGradient>
</defs>
</svg>
