<svg width="569" height="708" viewBox="0 0 569 708" fill="none" xmlns="http://www.w3.org/2000/svg">
<path fill-rule="evenodd" clip-rule="evenodd" d="M560.506 187.779C556.976 198.018 551.651 207.368 544.842 215.287L544.842 215.262C530.998 231.342 512.026 240.707 492.018 241.338C472.009 241.969 452.566 233.817 437.88 218.639C405.302 184.92 362.236 166.639 317.813 167.671C273.39 168.703 231.102 188.967 199.919 224.168C184.574 241.485 172.452 262.012 164.248 284.567C156.042 307.125 151.916 331.27 152.104 355.622C152.292 379.973 156.79 404.054 165.342 426.481C173.893 448.909 186.33 469.244 201.941 486.324C233.663 521.04 276.258 540.649 320.692 540.996C365.126 541.342 407.905 522.4 439.959 488.183C454.409 472.783 473.721 464.331 493.735 464.648C513.748 464.967 532.863 474.03 546.96 489.884C553.89 497.696 559.358 506.964 563.046 517.148C566.732 527.332 568.563 538.226 568.433 549.199C568.303 560.172 566.213 571.002 562.285 581.059C558.358 591.116 552.672 600.199 545.558 607.778C500.56 656.029 443.891 688.606 382.482 701.524C321.073 714.44 257.586 707.14 199.784 680.512C141.982 653.884 92.3714 609.085 57.019 551.592C21.6666 494.099 2.10461 426.406 0.725572 356.789C1.03076 287.161 19.5464 219.173 54.0079 161.143C88.4694 103.112 137.383 57.5528 194.768 30.0369C252.152 2.52115 315.519 -5.75865 377.12 6.21014C438.721 18.179 495.885 49.8776 541.622 97.4294C548.853 104.897 554.678 113.891 558.759 123.886C562.842 133.882 565.098 144.678 565.398 155.648C565.697 166.616 564.035 177.539 560.506 187.779ZM397.232 353.43C397.816 399.461 364.406 437.246 322.611 437.826C280.815 438.406 246.461 401.561 245.877 355.531C245.294 309.502 278.702 271.716 320.498 271.136C362.293 270.556 396.648 307.401 397.232 353.43Z" fill="url(#paint0_linear_2_93)"/>
<defs>
<linearGradient id="paint0_linear_2_93" x1="-37.4129" y1="85.6189" x2="598.258" y2="395.916" gradientUnits="userSpaceOnUse">
<stop stop-color="#00A5F0"/>
<stop offset="1" stop-color="#00D7D7" stop-opacity="0"/>
</linearGradient>
</defs>
</svg>
